<?xml version="1.0" encoding="UTF-8"?><svg id="Ebene_1" xmlns="http://www.w3.org/2000/svg" viewBox="0 0 2169 1986"><defs><style>.cls-1{stroke:#000;stroke-width:.75px;}.cls-1,.cls-2{stroke-miterlimit:10;}.cls-3{fill:#fff;}.cls-2{stroke:#fff;stroke-width:51px;}</style></defs><path class="cls-2" d="M1098.46,168.19c20.21-4.11,40.58,2.44,52.96,19.31l921.82,1608.76c4.54,30.91-22.94,58.3-53.61,58l-1822.59.05c-46.99-2.3-62.03-49.57-37.73-86.24L1075.93,180.64c5.21-5.14,15.48-11.02,22.53-12.45ZM1934.25,1753.57L1110.55,320.23,286.84,1753.57h1647.41Z"/><path class="cls-1" d="M1382.04,1068.88l-109.24,54.43c-2.96.21-5.03-1.71-6.02-4.41-2.25-6.16,2.12-27.99,0-34.58-.32-1.01-.49-1.64-1.71-1.71l-257.17.11c-.43,2.06.44,2.85,1.62,4.3,16.75,20.6,34.9,40.15,51.46,60.9,3.16,2.66,35.79,1.1,41.88.37,2.78-2.78-.86-27.76.77-32.88.32-1.01.48-1.64,1.71-1.71l102.56.83-.61,103.63-102.74.02-1.65-34.36c-14.28-2.37-50.89,4.42-61.33-4.91l-80.36-96.2-88.8-.03c-18.51,54.87-96.4,54.19-112.19-2.52-17.93-64.37,72.99-103.35,107.52-42.3,2.31,4.08,1.6,9.21,6.36,10.45,8.91,2.32,13.53-3.67,18.99-9.59,24.89-26.98,46.81-59.32,71.52-86.73,4.33-3.22,8.68-4.17,13.88-4.77,19.17-2.21,42.47,1.66,62.09.03,18.52-45.75,83.43-46.17,99.64,1.68,18.24,53.87-52.62,95.55-91.8,47.47-3.16-3.88-5.93-12.39-9.47-14.33-3.16-1.74-13.4.62-17.31.6-3.45-.02-7.17-1.03-11.22-.97-8.6.13-17.22.58-25.79.94-16.79,20.77-35.09,40.5-51.93,61.24-1.17,1.44-2.04,2.24-1.61,4.3l334.8-.88c2.92-2.91-1.09-31.02.83-36.29.37-1,.71-1.92,1.62-2.57l3.55-.96,107.96,53.09c3.1,1.72,3.06,5.23,2.19,8.29Z"/><path d="M1001.47,1294.57l77.15.59,70.87,72.8-.35,240.94-71.49,72.19-78.11-.35-47.29-48.46,23.06-22.88c4.17-79.29.69-159.79,1.77-239.52l-24.72-28.52,49.12-46.79ZM1036.5,1623.66c5.11-1.56,11.29-6.98,15.35-10.51,7.2-6.25,31.12-28.73,35.53-35.35,1.95-2.93,3.53-4.57,2.88-8.62l-.51-168.31c-14.99-13.47-32-34.52-47.49-46.38-1.93-1.48-2.42-3.7-5.76-2.86v272.03Z"/><path d="M1252.98,1363.13v221.26c0,1.1,13.7,15.68,17.2,11.56l46.97-46.96,43.07,43.07-89.04,87.23-77.69-75.63-1.93-7.65,1.11-219.43,82.34-82.38,87.13,87.13-44.98,44.98-64.18-63.18Z"/><path d="M823.86,1361.21v221.26c0,1.17,14.32,15.63,17.81,14.16l46.36-47.65c4.26,7.33,42.01,38.11,42.9,41.54.57,2.21,0,3.89-1.59,5.44l-85.63,83.11-77.43-75.43-1.93-7.65,1.11-219.43,82.34-82.38,85.11,87.39-44.88,44.72-64.18-65.1Z"/><path class="cls-3" d="M1036.5,1623.66v-272.03c3.34-.83,3.83,1.38,5.76,2.86,15.49,11.86,32.5,32.91,47.49,46.38l.51,168.31c.66,4.05-.93,5.68-2.88,8.62-4.4,6.63-28.33,29.1-35.53,35.35-4.06,3.53-10.24,8.95-15.35,10.51Z"/><polygon points="1173.05 476 1122.98 611.19 1195.58 611.19 996.53 889.08 1062.89 691.31 992.79 691.31 1086.67 476 1173.05 476"/></svg>